C:\Users\israe\Dropbox\PhDWork\ExperimentalData\subject1\145\P1S145W06_filtered35.mot
nRows=18
nColumns=28

name C:\Users\israe\Dropbox\PhDWork\ExperimentalData\subject1\145\P1S145W06_filtered35.mot
datacolumns 28
datarows 18
range 0.4120000000 0.4290000000
endheader
time	ground_force_1_vx	ground_force_1_vy	ground_force_1_vz	ground_force_1_px	ground_force_1_py	ground_force_1_pz	ground_moment_1_mx	ground_moment_1_my	ground_moment_1_mz	ground_force_2_vx	ground_force_2_vy	ground_force_2_vz	ground_force_2_px	ground_force_2_py	ground_force_2_pz	ground_moment_2_mx	ground_moment_2_my	ground_moment_2_mz	ground_force_3_vx	ground_force_3_vy	ground_force_3_vz	ground_force_3_px	ground_force_3_py	ground_force_3_pz	ground_moment_3_mx	ground_moment_3_my	ground_moment_3_mz
        0.4120000000	        0.0000000000	        0.0000000000	       -0.0000000000	        0.2000000000	        0.0000000000	       -0.9030000000	        0.0000000000	       -0.0000000000	       -0.0000000000	        0.0000000000	        0.0000000002	       -0.0000000000	        0.2000000000	        0.0000000000	       -0.3000000000	       -0.0000000000	        0.0000000000	        0.0000000000	       14.7769189681	      439.8148893172	       -8.7535108953	        0.2000000000	       -0.0000000000	        0.3030000000	      -30.4114405175	       -1.9771409486	      -44.3081237094	
        0.4130000000	        0.0000000000	        0.0000000000	       -0.0000000000	        0.2000000000	        0.0000000000	       -0.9030000000	        0.0000000000	       -0.0000000000	        0.0000000000	        0.0000000000	        0.0000000003	       -0.0000000000	        0.2000000000	        0.0000000000	       -0.3000000000	       -0.0000000000	        0.0000000000	        0.0000000000	       14.9852848017	      443.3039970061	       -9.0755213534	        0.2000000000	       -0.0000000000	        0.3030000000	      -30.3192103834	       -2.0160187163	      -44.6728388254	
        0.4140000000	        0.0000000000	        0.0000000000	       -0.0000000000	        0.2000000000	        0.0000000000	       -0.9030000000	        0.0000000000	        0.0000000000	        0.0000000000	        0.0000000000	        0.0000000004	       -0.0000000001	        0.2000000000	        0.0000000000	       -0.3000000000	       -0.0000000000	        0.0000000000	        0.0000000000	       15.2077759851	      446.8118981992	       -9.4028677168	        0.2000000000	       -0.0000000000	        0.3030000000	      -30.2215237744	       -2.0555998804	      -45.0400806933	
        0.4150000000	        0.0000000000	        0.0000000000	       -0.0000000000	        0.2000000000	        0.0000000000	       -0.9030000000	       -0.0000000000	        0.0000000000	        0.0000000000	        0.0000000000	        0.0000000006	       -0.0000000001	        0.2000000000	        0.0000000000	       -0.3000000000	       -0.0000000000	        0.0000000000	        0.0000000000	       15.4439151812	      450.3396995052	       -9.7392254038	        0.2000000000	       -0.0000000000	        0.3030000000	      -30.1190426204	       -2.0962779274	      -45.4098877468	
        0.4160000000	        0.0000000000	        0.0000000000	       -0.0000000000	        0.2000000000	        0.0000000000	       -0.9030000000	       -0.0000000000	        0.0000000000	        0.0000000000	        0.0000000000	        0.0000000007	       -0.0000000002	        0.2000000000	        0.0000000000	       -0.3000000000	       -0.0000000000	        0.0000000000	        0.0000000000	       15.6923863767	      453.8882407948	      -10.0884507247	        0.2000000000	       -0.0000000000	        0.3030000000	      -30.0129502358	       -2.1386803154	      -45.7822136612	
        0.4170000000	        0.0000000000	        0.0000000000	       -0.0000000000	        0.2000000000	        0.0000000000	       -0.9030000000	       -0.0000000000	        0.0000000000	        0.0000000000	        0.0000000001	        0.0000000008	       -0.0000000003	        0.2000000000	        0.0000000000	       -0.3000000000	       -0.0000000000	        0.0000000000	        0.0000000000	       15.9508689025	      457.4601404355	      -10.4540040141	        0.2000000000	       -0.0000000000	        0.3030000000	      -29.9044433939	       -2.1835996002	      -46.1569324239	
        0.4180000000	        0.0000000000	        0.0000000000	       -0.0000000000	        0.2000000000	        0.0000000000	       -0.9030000000	       -0.0000000000	        0.0000000000	        0.0000000000	        0.0000000001	        0.0000000009	       -0.0000000003	        0.2000000000	        0.0000000000	       -0.3000000000	       -0.0000000000	        0.0000000000	        0.0000000000	       16.2164168323	      461.0602420764	      -10.8386063549	        0.2000000000	       -0.0000000000	        0.3030000000	      -29.7942078472	       -2.2317706569	      -46.5340036586	
        0.4190000000	        0.0000000000	        0.0000000000	       -0.0000000000	        0.2000000000	        0.0000000000	       -0.9030000000	       -0.0000000000	        0.0000000000	        0.0000000000	        0.0000000001	        0.0000000010	       -0.0000000004	        0.2000000000	        0.0000000000	       -0.3000000000	       -0.0000000000	        0.0000000000	        0.0000000000	       16.4858743224	      464.6923594623	      -11.2443870908	        0.2000000000	       -0.0000000000	        0.3030000000	      -29.6822959957	       -2.2836522129	      -46.9136737910	
        0.4200000000	        0.0000000000	        0.0000000000	        0.0000000000	        0.2000000000	        0.0000000000	       -0.9030000000	       -0.0000000000	        0.0000000000	        0.0000000000	        0.0000000001	        0.0000000010	       -0.0000000005	        0.2000000000	        0.0000000000	       -0.3000000000	       -0.0000000000	        0.0000000000	        0.0000000000	       16.7564655111	      468.3563520800	      -11.6734138735	        0.2000000000	       -0.0000000000	        0.3030000000	      -29.5683656494	       -2.3394086459	      -47.2965380866	
        0.4210000000	        0.0000000000	        0.0000000000	        0.0000000000	        0.2000000000	        0.0000000000	       -0.9030000000	       -0.0000000000	        0.0000000000	        0.0000000000	        0.0000000001	        0.0000000009	       -0.0000000006	        0.2000000000	        0.0000000000	       -0.3000000000	       -0.0000000000	        0.0000000000	        0.0000000000	       17.0264834608	      472.0484645067	      -12.1282230754	        0.2000000000	       -0.0000000000	        0.3030000000	      -29.4521167140	       -2.3990457842	      -47.6833870382	
        0.4220000000	        0.0000000000	        0.0000000000	        0.0000000000	        0.2000000000	        0.0000000000	       -0.9030000000	       -0.0000000000	        0.0000000000	        0.0000000000	        0.0000000001	        0.0000000008	       -0.0000000006	        0.2000000000	        0.0000000000	       -0.3000000000	       -0.0000000000	        0.0000000000	        0.0000000000	       17.2953862878	      475.7624738900	      -12.6118152942	        0.2000000000	       -0.0000000000	        0.3030000000	      -29.3336645932	       -2.4625683950	      -48.0749338537	
        0.4230000000	        0.0000000000	        0.0000000000	        0.0000000000	        0.2000000000	        0.0000000000	       -0.9030000000	       -0.0000000000	        0.0000000000	        0.0000000000	        0.0000000001	        0.0000000004	       -0.0000000006	        0.2000000000	        0.0000000000	       -0.3000000000	        0.0000000000	       -0.0000000000	        0.0000000000	       17.5630952293	      479.4908045727	      -13.1271933561	        0.2000000000	       -0.0000000000	        0.3030000000	      -29.2136015116	       -2.5301276848	      -48.4716687653	
        0.4240000000	        0.0000000000	        0.0000000000	        0.0000000000	        0.2000000000	        0.0000000000	       -0.9030000000	       -0.0000000000	        0.0000000000	        0.0000000000	        0.0000000000	        0.0000000000	       -0.0000000006	        0.2000000000	        0.0000000000	       -0.3000000000	        0.0000000000	       -0.0000000000	        0.0000000000	       17.8291443615	      483.2274842018	      -13.6773168729	        0.2000000000	       -0.0000000000	        0.3030000000	      -29.0928322211	       -2.6020648094	      -48.8738863952	
        0.4250000000	        0.0000000000	        0.0000000000	        0.0000000000	        0.2000000000	        0.0000000000	       -0.9030000000	       -0.0000000000	        0.0000000000	        0.0000000000	        0.0000000000	        0.0000000000	       -0.0000000005	        0.2000000000	        0.0000000000	       -0.3000000000	        0.0000000001	       -0.0000000000	        0.0000000000	       18.0924215048	      486.9711350808	      -14.2653947172	        0.2000000000	       -0.0000000000	        0.3030000000	      -28.9723557535	       -2.6787496035	      -49.2816337872	
        0.4260000000	        0.0000000000	        0.0000000000	        0.0000000000	        0.2000000000	        0.0000000000	       -0.9030000000	       -0.0000000000	        0.0000000000	        0.0000000000	       -0.0000000000	        0.0000000000	       -0.0000000003	        0.2000000000	        0.0000000000	       -0.3000000000	        0.0000000001	       -0.0000000000	        0.0000000000	       18.3516265379	      490.7248346566	      -14.8943618154	        0.2000000000	       -0.0000000000	        0.3030000000	      -28.8530759246	       -2.7603627049	      -49.6945276242	
        0.4270000000	        0.0000000000	        0.0000000000	        0.0000000000	        0.2000000000	        0.0000000000	       -0.9030000000	       -0.0000000000	        0.0000000000	        0.0000000000	       -0.0000000001	        0.0000000000	       -0.0000000000	        0.2000000000	        0.0000000000	       -0.3000000000	        0.0000000002	       -0.0000000000	       -0.0000000000	       18.6058690709	      494.4948178313	      -15.5657687401	        0.2000000000	       -0.0000000000	        0.3030000000	      -28.7356977390	       -2.8468503216	      -50.1116529208	
        0.4280000000	       -0.0000000000	        0.0000000000	        0.0000000000	        0.2000000000	        0.0000000000	       -0.9030000000	       -0.0000000000	        0.0000000000	        0.0000000000	       -0.0000000002	        0.0000000000	        0.0000000004	        0.2000000000	        0.0000000000	       -0.3000000000	        0.0000000002	       -0.0000000001	       -0.0000000000	       18.8548281148	      498.2904624331	      -16.2794821813	        0.2000000000	       -0.0000000000	        0.3030000000	      -28.6206798382	       -2.9380382556	      -50.5316579961	
        0.4290000000	       -0.0000000000	        0.0000000000	        0.0000000000	        0.2000000000	        0.0000000000	       -0.9030000000	       -0.0000000000	        0.0000000000	       -0.0000000000	       -0.0000000004	        0.0000000000	        0.0000000011	        0.2000000000	        0.0000000000	       -0.3000000000	        0.0000000003	       -0.0000000001	       -0.0000000000	       19.0984784377	      502.1235574869	      -17.0342188835	        0.2000000000	       -0.0000000000	        0.3030000000	      -28.5082764569	       -3.0337554811	      -50.9530383131	
